<mxfile host="65bd71144e">
    <diagram id="5saSmuI7734CpQAmR3Em" name="第1頁">
        <mxGraphModel dx="408" dy="361" grid="1" gridSize="10" guides="1" tooltips="1" connect="1" arrows="1" fold="1" page="1" pageScale="1" pageWidth="827" pageHeight="1169" math="0" shadow="0">
            <root>
                <mxCell id="0"/>
                <mxCell id="1" parent="0"/>
                <mxCell id="2" value="合約１：與農夫簽合約" style="swimlane;whiteSpace=wrap;html=1;" vertex="1" parent="1">
                    <mxGeometry x="60" y="40" width="230" height="140" as="geometry"/>
                </mxCell>
                <mxCell id="3" value="操作：用紙本或電子檔簽合約" style="text;html=1;align=left;verticalAlign=middle;resizable=0;points=[];autosize=1;strokeColor=none;fillColor=none;" vertex="1" parent="2">
                    <mxGeometry y="30" width="180" height="30" as="geometry"/>
                </mxCell>
                <mxCell id="4" value="交互參照：處理合約紀錄" style="text;html=1;align=left;verticalAlign=middle;resizable=0;points=[];autosize=1;strokeColor=none;fillColor=none;" vertex="1" parent="2">
                    <mxGeometry y="50" width="160" height="30" as="geometry"/>
                </mxCell>
                <mxCell id="5" value="前置條件：資料庫建有合約空白檔" style="text;html=1;align=center;verticalAlign=middle;resizable=0;points=[];autosize=1;strokeColor=none;fillColor=none;" vertex="1" parent="2">
                    <mxGeometry x="-10" y="70" width="200" height="30" as="geometry"/>
                </mxCell>
                <mxCell id="6" value="後置條件：歸檔已簽合約於資料庫" style="text;html=1;align=center;verticalAlign=middle;resizable=0;points=[];autosize=1;strokeColor=none;fillColor=none;" vertex="1" parent="2">
                    <mxGeometry x="-10" y="90" width="200" height="30" as="geometry"/>
                </mxCell>
                <mxCell id="7" value="合約２：收穫盤點" style="swimlane;whiteSpace=wrap;html=1;" vertex="1" parent="1">
                    <mxGeometry x="60" y="190" width="230" height="140" as="geometry"/>
                </mxCell>
                <mxCell id="8" value="操作：盤點商品和合約數量是否相同" style="text;html=1;align=left;verticalAlign=middle;resizable=0;points=[];autosize=1;strokeColor=none;fillColor=none;" vertex="1" parent="7">
                    <mxGeometry y="30" width="220" height="30" as="geometry"/>
                </mxCell>
                <mxCell id="9" value="交互參照：處理訂單紀錄" style="text;html=1;align=left;verticalAlign=middle;resizable=0;points=[];autosize=1;strokeColor=none;fillColor=none;" vertex="1" parent="7">
                    <mxGeometry y="50" width="160" height="30" as="geometry"/>
                </mxCell>
                <mxCell id="10" value="前置條件：建立水果條碼" style="text;html=1;align=left;verticalAlign=middle;resizable=0;points=[];autosize=1;strokeColor=none;fillColor=none;" vertex="1" parent="7">
                    <mxGeometry y="70" width="160" height="30" as="geometry"/>
                </mxCell>
                <mxCell id="11" value="後置條件：歸檔已簽合約於資料庫" style="text;html=1;align=left;verticalAlign=middle;resizable=0;points=[];autosize=1;strokeColor=none;fillColor=none;" vertex="1" parent="7">
                    <mxGeometry y="90" width="200" height="30" as="geometry"/>
                </mxCell>
                <mxCell id="14" value="合約３：客戶訂單" style="swimlane;whiteSpace=wrap;html=1;" vertex="1" parent="1">
                    <mxGeometry x="299" y="40" width="240" height="140" as="geometry"/>
                </mxCell>
                <mxCell id="15" value="操作：客戶下單" style="text;html=1;align=left;verticalAlign=middle;resizable=0;points=[];autosize=1;strokeColor=none;fillColor=none;" vertex="1" parent="14">
                    <mxGeometry y="30" width="110" height="30" as="geometry"/>
                </mxCell>
                <mxCell id="16" value="交互參照：處理貨物紀錄" style="text;html=1;align=left;verticalAlign=middle;resizable=0;points=[];autosize=1;strokeColor=none;fillColor=none;" vertex="1" parent="14">
                    <mxGeometry y="50" width="160" height="30" as="geometry"/>
                </mxCell>
                <mxCell id="17" value="前置條件：確認訂單收款方式與取貨方式" style="text;html=1;align=left;verticalAlign=middle;resizable=0;points=[];autosize=1;strokeColor=none;fillColor=none;" vertex="1" parent="14">
                    <mxGeometry y="70" width="240" height="30" as="geometry"/>
                </mxCell>
                <mxCell id="18" value="後置條件：訂單成立" style="text;html=1;align=left;verticalAlign=middle;resizable=0;points=[];autosize=1;strokeColor=none;fillColor=none;" vertex="1" parent="14">
                    <mxGeometry y="90" width="130" height="30" as="geometry"/>
                </mxCell>
                <mxCell id="19" value="合約４：客服系統" style="swimlane;whiteSpace=wrap;html=1;" vertex="1" parent="1">
                    <mxGeometry x="299" y="190" width="240" height="140" as="geometry"/>
                </mxCell>
                <mxCell id="20" value="操作：客人詢問問題" style="text;html=1;align=left;verticalAlign=middle;resizable=0;points=[];autosize=1;strokeColor=none;fillColor=none;" vertex="1" parent="19">
                    <mxGeometry y="30" width="130" height="30" as="geometry"/>
                </mxCell>
                <mxCell id="21" value="交互參照：處理貨物紀錄" style="text;html=1;align=left;verticalAlign=middle;resizable=0;points=[];autosize=1;strokeColor=none;fillColor=none;" vertex="1" parent="19">
                    <mxGeometry y="50" width="160" height="30" as="geometry"/>
                </mxCell>
                <mxCell id="22" value="前置條件：建立自動回覆系統" style="text;html=1;align=left;verticalAlign=middle;resizable=0;points=[];autosize=1;strokeColor=none;fillColor=none;" vertex="1" parent="19">
                    <mxGeometry y="70" width="180" height="30" as="geometry"/>
                </mxCell>
                <mxCell id="23" value="後置條件：解決客人問題" style="text;html=1;align=left;verticalAlign=middle;resizable=0;points=[];autosize=1;strokeColor=none;fillColor=none;" vertex="1" parent="19">
                    <mxGeometry y="90" width="160" height="30" as="geometry"/>
                </mxCell>
            </root>
        </mxGraphModel>
    </diagram>
</mxfile>